<svg width="0" height="0" class="hidden">
  <symbol xmlns="http://www.w3.org/2000/svg" viewBox="0 0 32 32" id="antena">
    <path d="m30.773 22.098-8.443-8.505.937-4.615c.242.094.499.144.758.146h.006c1.192.014 2.17-.941 2.184-2.133s-.941-2.17-2.133-2.184c-1.192-.014-2.17.941-2.184 2.133-.003.255.039.509.125.749l-4.96.605L8.972.161C8.873.06 8.737.002 8.595.001c-.14.001-.274.056-.373.155L6.709 1.66c-.208.208-.208.546 0 .754l.814.826C4.37 9.038 5.394 16.218 10.042 20.903c.043.041.092.074.146.098-.034.18-.051.364-.052.547v6.187h-6.4c-1.472.002-2.665 1.195-2.667 2.667v1.067c0 .295.239.533.533.533h24.533c.295 0 .533-.239.533-.533v-1.067c-.002-1.472-1.195-2.665-2.667-2.667h-6.4v-2.742c1.003.21 2.024.317 3.049.32 2.458-.003 4.877-.615 7.04-1.783l.818.823c.099.101.235.159.377.16.14-.001.274-.056.373-.155l1.513-1.504c.208-.208.208-.546 0-.754zM23.28 6.233c.418-.415 1.093-.414 1.508.004s.414 1.093-.004 1.508c-.2.199-.47.31-.752.31h-.003c-.589-.003-1.064-.483-1.061-1.072.002-.282.115-.552.314-.751h-.002zm-1.256 3.505-.598 2.946-1.175-1.182 1.774-1.763zm-.605-.902-1.92 1.909-1.485-1.493 3.405-.415zM24.004 28.8c.884 0 1.6.716 1.6 1.6v.533H2.137V30.4c0-.884.716-1.6 1.6-1.6h20.267zm-7.467-2.133v1.067h-5.333v-1.067h5.333zM11.204 25.6v-4.053c0-1.294 1.196-2.347 2.667-2.347s2.667 1.053 2.667 2.347V25.6h-5.333zm6.4-1.696v-2.357c0-1.882-1.675-3.413-3.733-3.413-1.331-.02-2.576.657-3.281 1.786C6.532 15.646 5.619 9.275 8.311 4.033l18.602 18.708c-2.872 1.461-6.165 1.873-9.309 1.163zm11.289-.684L7.836 2.039l.755-.752 7.935 7.98c.004 0 .006.007.01.01l13.115 13.191-.757.752z"></path>
    <path fill="#2196F3" d="M13.876 20.267h-.005c-.884-.001-1.601.714-1.602 1.598s.714 1.601 1.598 1.602h.005c.884.001 1.601-.714 1.602-1.598s-.714-1.601-1.598-1.602zm.373 1.978c-.1.1-.236.156-.378.155-.295-.002-.532-.242-.531-.536.001-.141.057-.276.157-.375s.233-.154.373-.155c.295.002.532.241.53.536-.001.141-.057.276-.157.375h.005z"></path>
  </symbol>
  <symbol xmlns="http://www.w3.org/2000/svg" viewBox="0 0 32 32" id="astronauta">
    <path fill="#2196F3" d="M31.974 4.524c-.063-.193-.229-.333-.43-.363l-1.91-.278-.855-1.731c-.179-.365-.777-.365-.956 0l-.855 1.731-1.91.278c-.201.029-.367.17-.431.363-.062.193-.011.405.135.547l1.383 1.348-.326 1.903c-.034.2.048.402.212.522.166.121.382.135.562.04l1.709-.899 1.709.899c.078.041.164.061.249.061.11 0 .221-.034.314-.102.164-.119.246-.322.212-.522l-.326-1.903 1.383-1.348c.145-.142.197-.354.135-.547zm-2.463 1.327c-.125.122-.183.299-.153.472l.191 1.114-1-.526c-.078-.041-.163-.061-.249-.061s-.17.02-.249.061l-1.001.526.191-1.114c.03-.173-.028-.349-.153-.472l-.81-.789 1.119-.163c.174-.025.324-.134.402-.292l.5-1.013.5 1.013c.078.157.228.267.402.292l1.119.163-.809.789zM26.134 20.522h-1.067v1.067h1.067v-1.067zM26.134 22.656h-1.067v1.067h1.067v-1.067zM27.2 21.589h-1.067v1.067H27.2v-1.067zM25.067 21.589H24v1.067h1.067v-1.067zM22.4 26.389h-1.067v1.067H22.4v-1.067zM22.4 28.522h-1.067v1.067H22.4v-1.067zM23.467 27.456H22.4v1.067h1.067v-1.067zM21.333 27.456h-1.067v1.067h1.067v-1.067zM16 24.256h-1.067v1.067H16v-1.067zM16 26.389h-1.067v1.067H16v-1.067zM17.067 25.322H16v1.067h1.067v-1.067zM14.933 25.322h-1.067v1.067h1.067v-1.067zM5.867 6.122H4.8v1.067h1.067V6.122zM5.867 8.255H4.8v1.067h1.067V8.255z"></path>
    <path fill="#2196F3" d="M6.933 7.189H5.866v1.067h1.067V7.189zM4.8 7.189H3.733v1.067H4.8V7.189z"></path>
    <path d="M24.715 14.159c-.287-.388-.709-.637-1.188-.705-.481-.068-.956.058-1.34.352l-1.252.96-1.898 1.417-1.358-.541c2.421-1.086 4.114-3.508 4.114-6.32 0-3.823-3.123-6.933-6.961-6.933s-6.961 3.11-6.961 6.933c0 1.386.414 2.674 1.12 3.758l-2.764-.024h-.005c-.009 0-.015.004-.023.005-.053.002-.105.013-.155.031-.013.005-.026.008-.038.013-.006.003-.013.003-.019.006l-3.233 1.596c-.001 0-.001 0-.001.001l-1.893.911c-.021.009-.042.021-.063.035-.755.502-1.012 1.489-.598 2.295.22.429.595.745 1.056.889.178.055.359.083.539.083.29 0 .577-.071.839-.211l1.388-.738 2.264-1.169 1.357-.008L2.2 22.211c-.001.001-.001.001-.002.001L.859 23.545c-.316.315-.49.732-.49 1.178s.174.863.49 1.179c.325.323.752.485 1.179.485s.854-.162 1.18-.485l1.314-1.309 1.741-1.3.901.897-1.762 1.754c0 .001-.001.001-.002.001l-1.339 1.333c-.316.315-.49.732-.49 1.178s.174.863.49 1.179c.325.323.753.485 1.18.485s.855-.162 1.18-.485l3.482-3.467c.001-.001.001-.001.001-.002l1.01-1-.004-.004c.006-.006.015-.009.022-.015l5.166-5.658 3.471.494c.025.004.05.005.075.005.065 0 .127-.015.187-.038.018-.006.033-.015.05-.023.019-.01.039-.015.058-.027l3.213-2.133c.012-.008.018-.021.029-.029.013-.01.029-.014.041-.026l1.271-1.191c.662-.62.753-1.635.212-2.362zM2.13 17.77c-.173.093-.37.111-.558.052-.187-.058-.338-.186-.427-.358-.161-.314-.068-.695.214-.902l1.314-.632.449 1.312-.992.528zm3.498-1.828-1.548.8-.439-1.283 2.027-1.001-.04 1.484zm15.099-6.62c0 .918-.219 1.785-.599 2.559l-4.181-1.899c-.044-.573-.341-1.075-.788-1.388l1.464-4.86c2.378.756 4.105 2.974 4.105 5.588zm-11.789 0c0-3.235 2.644-5.867 5.894-5.867.253 0 .5.021.745.052l-1.432 4.754c-.019-.001-.037-.006-.057-.006-1.033 0-1.873.837-1.873 1.867s.84 1.867 1.873 1.867c.694 0 1.294-.383 1.618-.945l3.862 1.755c-1.075 1.446-2.795 2.39-4.737 2.39-3.25 0-5.894-2.632-5.894-5.867zm5.956.8c0 .441-.362.8-.806.8s-.806-.359-.806-.8c0-.441.362-.8.806-.8s.806.359.806.8zM2.465 25.146c-.236.234-.619.234-.854.001-.114-.114-.176-.263-.176-.423s.062-.309.176-.421l.962-.958.851.848-.959.955zm3.214 3.734c-.236.234-.619.235-.855.001-.114-.114-.176-.263-.176-.423s.062-.309.176-.421l.963-.959.852.848-.96.955zm3.481-3.469c-.001 0-.001 0-.002.001l-1.765 1.76-.852-.848 1.763-1.755s.001-.001.002-.001c.04-.04.065-.088.09-.135.007-.014.02-.026.026-.04.017-.041.019-.085.026-.129.003-.025.014-.047.014-.073 0-.036-.013-.07-.02-.106-.006-.032-.006-.065-.019-.095-.02-.05-.055-.094-.091-.138-.01-.012-.014-.027-.025-.038h-.001c-.001 0-.001-.002-.001-.002l-1.607-1.6c-.017-.017-.039-.024-.058-.038-.028-.022-.055-.042-.087-.058-.03-.015-.061-.024-.093-.033-.034-.01-.067-.017-.103-.02-.033-.002-.063.001-.095.005-.036.004-.069.009-.104.02-.034.011-.063.027-.094.045-.02.011-.042.015-.061.029L4.23 23.486l-.901-.897 2.399-2.386 4.361 4.289-.928.919zm6.819-7.017c-.015-.002-.03.004-.045.003-.039-.002-.076.001-.115.007-.03.005-.059.011-.088.021-.034.012-.065.028-.097.047-.03.018-.057.037-.083.061-.013.011-.028.017-.04.029l-4.698 5.146-4.328-4.257 2.833-2.818c.209-.208.21-.546.002-.755-.105-.105-.243-.157-.381-.156v-.001l-2.219.013.028-1.607 3.104.027c1.265 1.294 3.029 2.101 4.981 2.101.437 0 .864-.045 1.279-.123.04.032.079.065.13.085l2.41.96.152.758.178.885-3.003-.427zm4.041.178-.313-1.558 1.446-1.08.947 1.257-2.08 1.381zm3.754-2.831-.838.785-.931-1.236.831-.637c.155-.119.351-.168.543-.143.193.027.364.128.48.284.217.292.18.699-.085.947z"></path>
    <path d="m13.602 18.544-2.143-2.133c-.207-.207-.545-.207-.753 0l-2.142 2.133c-.1.101-.157.236-.157.378s.056.278.157.378l2.142 2.133c.104.103.241.155.377.155s.273-.052.376-.155l2.143-2.133c.1-.1.157-.236.157-.378s-.057-.278-.157-.378zm-2.519 1.759-1.387-1.381 1.387-1.381 1.387 1.381-1.387 1.381zM17.164 5.071l-.258 1.036c.071.018 1.738.452 1.738 2.149h1.067c0-2.017-1.666-2.965-2.547-3.185zM19.711 9.322h-1.067v1.067h1.067V9.322z"></path>
  </symbol>
  <symbol xmlns="http://www.w3.org/2000/svg" viewBox="0 0 64 32" id="company-1">
    <path d="m22.943 4.279 4.231 4.005-7.854-.005v19.434h20.528v-7.43l4.226 4.001V4.279H22.942zm16.72 15.534L27.666 8.456h11.997v11.357zm-3.725 5.058H22.569v-13.07h.945v12.185h12.424v.885zm-10.212 5.43-.494 1.017-.494-1.017h-.414l.721 1.356v.79h.374v-.79l.719-1.356h-.413zm.621 2.146.174-.5h.831l.175.5h.389l-.812-2.146h-.335l-.811 2.146h.388zm.589-1.69.311.89h-.622l.311-.89zm1.967.838c-.054.083-.081.173-.081.273 0 .181.063.328.19.441.128.112.298.168.51.168s.395-.057.548-.172l.121.143h.416l-.315-.373c.124-.169.186-.386.186-.65h-.311c0 .144-.03.276-.09.394l-.414-.489.146-.106c.103-.075.177-.149.223-.224s.068-.158.068-.248c0-.136-.05-.249-.15-.34-.099-.092-.227-.139-.383-.139-.173 0-.311.049-.413.147s-.153.23-.153.398c0 .069.016.14.049.214s.092.163.175.268c-.159.114-.266.213-.32.296zm.968.475c-.105.081-.218.121-.339.121-.107 0-.193-.031-.256-.093s-.096-.142-.096-.242c0-.115.059-.217.177-.307l.046-.032.469.553zm-.385-.951c-.101-.125-.152-.228-.152-.311 0-.072.021-.131.062-.178s.097-.071.167-.071c.065 0 .118.02.161.06s.063.087.063.143c0 .084-.03.154-.091.208l-.046.037-.164.112zm3.494 1.166c.147-.129.232-.308.254-.537h-.371c-.02.153-.066.263-.14.329s-.184.099-.33.099c-.16 0-.282-.061-.366-.183s-.124-.299-.124-.531v-.19c.002-.229.046-.402.133-.52.087-.119.212-.178.374-.178.14 0 .245.034.317.103.073.068.118.179.136.333h.371c-.024-.235-.108-.417-.252-.545s-.335-.193-.572-.193c-.176 0-.331.042-.466.125-.134.084-.236.202-.308.357s-.108.333-.108.535v.201c.003.198.04.371.111.52s.171.265.301.346c.131.081.282.121.453.121.245 0 .441-.064.588-.192zm2.192-.301c.073-.159.109-.344.109-.554v-.119c-.001-.209-.038-.393-.112-.55s-.178-.279-.314-.363c-.135-.084-.289-.127-.464-.127s-.33.043-.466.128c-.135.084-.239.207-.314.367s-.111.345-.111.554v.121c.001.205.038.387.112.544s.18.279.315.364c.137.084.292.127.466.127.176 0 .331-.042.466-.127.136-.086.24-.207.313-.366zm-.4-1.213c.09.127.136.309.136.547v.112c0 .242-.045.426-.134.551s-.215.189-.38.189c-.163 0-.291-.064-.383-.193s-.137-.311-.137-.547v-.124c.002-.231.048-.409.139-.535.091-.127.218-.19.379-.19.165 0 .292.063.382.19z"></path>
  </symbol>
  <symbol xmlns="http://www.w3.org/2000/svg" viewBox="0 0 64 32" id="company-2">
    <path d="M30.257 3.636h-.082c-.127-.008-.254-.011-.38-.014h-.275c-.24 0-.484.006-.727.018-.018-.001-.037-.001-.055 0-2.2.125-4.356.675-6.349 1.62l-.261.126v13.368l.611-.207c.536-.184 1.107-.35 1.698-.504 1.598-.41 3.239-.628 4.888-.649v1.756c-.218.002-.431.008-.643.018h-.05c-1.269.07-2.528.263-3.76.577-1.56.391-3.065.977-4.48 1.746V4.346c1.469-.857 3.051-1.5 4.7-1.912 1.447-.374 2.935-.566 4.429-.571h.258c.309.008.609.022.892.043.744.052 1.483.17 2.207.352v1.729c-.703-.164-1.418-.272-2.138-.322-.015-.001-.029-.002-.044-.004-.149-.013-.298-.025-.437-.025zM33.3 5.403c.383.029.781.043 1.182.043 1.571-.006 3.135-.206 4.657-.597 1.559-.392 3.064-.979 4.478-1.747v16.84c-1.47.856-3.053 1.5-4.701 1.912-1.448.372-2.935.564-4.429.57-1.132.009-2.261-.124-3.36-.396V5.079c.26.06.527.115.799.161.446.075.916.13 1.375.164zm8.57.13-.611.206c-.562.189-1.129.358-1.698.508-1.659.426-3.363.645-5.075.651-.399 0-.765-.011-1.12-.034l-.487-.032v13.752l.418.037c.388.034.788.051 1.191.051 1.349-.006 2.691-.18 3.997-.517 1.075-.27 2.122-.646 3.123-1.122l.261-.126V5.534zM21.577 27.351c-.088-.091-.194-.163-.311-.21s-.243-.069-.369-.065c-.134-.002-.268.023-.392.074-.114.046-.218.114-.305.201-.086.087-.153.192-.197.307-.048.121-.072.249-.07.379v2.291c-.005.161.025.322.09.47.054.117.132.222.229.307.092.077.199.133.315.163.111.031.226.047.342.048.128.001.254-.026.37-.08.114-.05.218-.122.305-.212.085-.089.153-.193.2-.307.049-.116.074-.24.073-.365v-.256h-.599v.204c.002.07-.01.139-.035.204-.02.049-.049.093-.087.129-.037.03-.08.052-.125.066-.04.013-.083.021-.125.021-.053.006-.108-.002-.157-.023s-.092-.056-.124-.099c-.056-.092-.084-.199-.079-.307v-2.136c-.004-.118.021-.236.073-.342.031-.048.075-.087.127-.111s.109-.034.166-.027c.052-.002.103.009.149.031s.087.056.118.098c.067.088.102.196.099.307v.198h.593v-.233c.001-.137-.024-.273-.073-.401-.044-.12-.112-.23-.2-.322zM25.134 27.324c-.191-.161-.432-.25-.681-.252-.122.001-.243.022-.357.064-.116.042-.224.105-.316.187-.099.089-.178.199-.232.321-.06.14-.09.291-.087.444v2.197c-.004.155.026.308.087.45.054.118.133.223.232.307.092.085.199.151.316.193.115.042.235.064.357.064s.243-.022.357-.064c.119-.043.229-.109.324-.193.096-.086.172-.19.226-.307.061-.142.091-.295.087-.45v-2.197c.003-.152-.027-.304-.087-.444-.053-.121-.13-.23-.226-.321zm-.279 2.962c.005.059-.003.117-.024.172s-.053.105-.095.145c-.079.066-.179.103-.282.103s-.203-.036-.282-.103c-.042-.041-.075-.09-.095-.145s-.029-.114-.024-.172v-2.197c-.005-.059.003-.117.024-.172s.053-.105.095-.145c.079-.066.179-.103.282-.103s.203.036.282.103c.042.041.075.09.095.145s.029.114.024.172v2.197zM29.807 31.267v-4.159h-.576l-.756 2.202h-.011l-.762-2.202h-.57v4.159h.594v-2.53h.011l.582 1.789h.296l.587-1.789h.011v2.53h.594zM33.182 27.4c-.092-.103-.207-.181-.336-.227-.139-.045-.285-.067-.431-.064h-.883v4.159h.593v-1.624h.305c.185.008.369-.031.535-.114.135-.075.247-.185.325-.318.069-.111.115-.234.136-.362.023-.157.034-.315.032-.473.006-.2-.014-.399-.058-.594-.04-.144-.115-.275-.218-.382zm-.305 1.268c-.003.075-.021.149-.055.216-.034.064-.087.115-.153.146-.088.039-.184.057-.28.052h-.27v-1.414h.305c.092-.005.184.013.267.052.061.035.11.089.139.154.032.073.05.152.052.232v.276c0 .096.006.197 0 .286h-.006zM35.99 27.108h-.486l-.916 4.159h.593l.174-.894h.808l.174.894h.593l-.939-4.159zm-.547 2.699.292-1.508h.011l.29 1.508h-.593zM39.819 29.614h-.011l-.895-2.506h-.57v4.159h.593v-2.501h.012l.906 2.501h.557v-4.159h-.593v2.506zM43.44 27.108l-.477 1.654h-.012l-.477-1.654h-.628l.814 2.401v1.758h.593v-1.758l.814-2.401h-.628z"></path>
  </symbol>
  <symbol xmlns="http://www.w3.org/2000/svg" viewBox="0 0 64 32" id="company-3">
    <path d="M21.981 29.699c.01 0 .019.002.028.006s.017.008.023.014l.132.126c-.102.102-.229.183-.37.239-.166.061-.345.09-.525.086-.169.003-.337-.024-.494-.08-.141-.051-.268-.128-.372-.226-.106-.101-.188-.22-.24-.349-.058-.144-.086-.295-.084-.448-.002-.153.028-.306.09-.449.058-.13.144-.249.255-.349.112-.098.247-.176.395-.227.162-.055.335-.082.509-.08.162-.003.322.021.472.073.13.049.25.117.354.202l-.11.134c-.008.009-.017.018-.028.024-.013.008-.029.011-.044.01-.017-.001-.034-.006-.048-.014l-.059-.036-.082-.046c-.036-.017-.072-.032-.11-.044-.049-.015-.099-.027-.15-.036-.065-.01-.13-.015-.196-.014-.125-.001-.249.019-.365.06-.108.038-.206.096-.286.169-.082.078-.145.169-.186.269-.046.114-.069.234-.067.355-.002.123.021.245.067.36.04.099.102.19.183.268.075.073.169.129.273.166.107.039.223.058.339.057.067.001.134-.003.201-.011.109-.012.213-.044.305-.096.046-.026.09-.056.13-.089.017-.014.039-.022.063-.023zM25.784 29.066c.002.152-.028.303-.089.445-.054.129-.138.247-.248.345s-.242.176-.389.227c-.322.107-.679.107-1.001 0-.146-.052-.277-.129-.387-.227-.11-.1-.195-.219-.25-.349-.119-.288-.119-.603 0-.891.056-.13.141-.249.25-.35.11-.095.242-.17.387-.219.322-.109.679-.109 1.001 0 .146.052.279.129.388.227.108.099.193.217.249.345.061.143.091.295.089.448zm-.346 0c.003-.121-.019-.242-.063-.358-.037-.099-.097-.19-.176-.267-.077-.073-.172-.131-.278-.169-.234-.078-.493-.078-.728 0-.106.038-.201.095-.278.169-.08.077-.141.168-.178.267-.084.233-.084.482 0 .715.037.099.098.19.178.267.077.073.172.13.278.167.235.076.493.076.728 0 .106-.037.201-.094.278-.167.079-.078.139-.169.176-.267.044-.115.065-.236.063-.358zM28.378 29.441l.035.08c.013-.029.025-.054.038-.08.013-.027.027-.053.043-.079l.841-1.329c.016-.023.031-.037.048-.041.022-.006.046-.008.069-.007h.249v2.161h-.295V28.49c-.002-.025-.002-.05 0-.074l-.846 1.347c-.011.02-.028.037-.049.049s-.047.018-.072.018h-.048c-.026 0-.051-.006-.072-.018s-.039-.029-.049-.049l-.871-1.356V30.142h-.285v-2.157h.249c.023-.001.047.001.069.007.02.009.037.023.046.041l.859 1.33c.017.025.031.05.043.077zM31.544 29.334v.809h-.329v-2.158h.734c.139-.002.277.014.41.047.107.026.205.072.29.134.073.058.13.131.165.212.039.088.058.182.056.276.001.095-.019.189-.061.276-.04.083-.1.157-.178.216-.084.065-.184.114-.291.143-.128.036-.262.052-.397.05l-.398-.006zm0-.232h.398c.087.001.173-.01.255-.033.068-.02.131-.052.184-.093.049-.04.088-.088.112-.143.027-.058.04-.119.039-.182.004-.06-.007-.12-.033-.176s-.065-.106-.115-.147c-.126-.085-.284-.127-.443-.116h-.398v.89zM35.969 30.146h-.26c-.026.001-.052-.006-.072-.02-.019-.013-.033-.031-.043-.05l-.224-.522h-1.124l-.232.522c-.008.019-.023.036-.041.049-.021.015-.047.022-.074.021h-.26l.988-2.161h.342l1.001 2.161zm-1.63-.802h.928l-.392-.88c-.03-.066-.055-.134-.074-.203l-.038.113c-.012.034-.025.066-.036.092l-.388.878zM37.391 27.995c.02.009.037.023.049.039l1.44 1.629v-1.678h.295v2.161h-.165c-.023.001-.047-.004-.068-.013-.02-.01-.038-.024-.053-.04l-1.439-1.628c.002.025.002.05 0 .074v1.606h-.295v-2.161h.175c.02 0 .041.003.059.01zM41.602 29.287v.858h-.329v-.858l-.91-1.302h.295c.025-.001.05.005.071.019.018.014.033.03.044.049l.57.84c.023.036.043.069.059.1s.03.062.041.092l.043-.093c.016-.034.035-.067.056-.099l.561-.845c.012-.017.026-.032.043-.046.02-.015.045-.022.071-.021h.298l-.912 1.307zM28.215 24.358c.143.016.288.029.435.04 2.221-.863 4.1-2.276 5.402-4.062s1.969-3.866 1.918-5.98l-2.448-2.127c.498 2.25.265 4.577-.672 6.719s-2.542 4.015-4.635 5.41z"></path>
    <path d="m27.341 24.259.066.011c2.236-1.39 3.941-3.331 4.895-5.571s1.111-4.678.452-6.998l-3.487-3.029c1.41 2.49 1.978 5.277 1.637 8.036s-1.576 5.378-3.563 7.551zM39.166 16.854c-.592 2.322-2.031 4.417-4.102 5.973-.605.457-1.257.864-1.949 1.216 1.687-.431 3.237-1.192 4.531-2.226s2.298-2.312 2.934-3.735l-1.414-1.227z"></path>
    <path d="m38.611 16.512-2.013-1.749c-.038 1.994-.691 3.943-1.89 5.644s-2.9 3.092-4.927 4.029h.01c.452 0 .903-.024 1.352-.07 1.894-.672 3.568-1.741 4.871-3.111s2.196-3 2.598-4.743zM27.632 7.395l-2.402-2.09c-2.147.721-3.994 1.988-5.298 3.636s-2.006 3.599-2.013 5.599c.008 2.21.864 4.354 2.433 6.094s3.76 2.975 6.228 3.511c2.203-2.332 3.493-5.213 3.682-8.225s-.732-5.998-2.63-8.525zM44.16 16.19c-.009-2.622-1.211-5.134-3.345-6.988s-5.025-2.899-8.043-2.906c-1.394-.001-2.777.222-4.078.659l14.705 12.777c.504-1.129.761-2.33.761-3.541z"></path>
  </symbol>
  <symbol xmlns="http://www.w3.org/2000/svg" viewBox="0 0 64 32" id="company-4">
    <path d="M14.579 12.794h-.002c-1.448 0-2.622 1.043-2.622 2.33v.002c0 1.287 1.174 2.33 2.622 2.33h.002c1.448 0 2.622-1.043 2.622-2.33v-.002c0-1.287-1.174-2.33-2.622-2.33zM33.929 12.049c-.004-1.787-.805-3.5-2.226-4.764s-3.349-1.976-5.36-1.98c-2.012.003-3.94.715-5.362 1.979s-2.224 2.977-2.228 4.765v9.855s15.175-1.502 15.177-9.854v-.002zM6.641 25.139c.004 1.244.561 2.435 1.55 3.315s2.33 1.375 3.729 1.379c1.399-.004 2.739-.499 3.729-1.378s1.547-2.07 1.551-3.314v-6.857S6.641 19.33 6.641 25.14zm5.28 1.229c-.273 0-.541-.072-.768-.207s-.405-.327-.509-.551c-.105-.225-.132-.472-.079-.71s.185-.457.378-.629.44-.289.708-.336.546-.023.799.07.469.25.62.453.233.44.233.683c.001.162-.035.322-.104.472s-.171.286-.299.4c-.128.115-.281.205-.449.268s-.348.094-.53.094v-.005zM21.573 24.168v2.575h-.531v-2.575h.531zm1.026 1.1v.414h-1.171v-.414h1.171zm.124-1.1v.416h-1.295v-.416h1.295zm2.423 1.228v.122c0 .196-.026.371-.08.527s-.128.288-.225.398c-.097.108-.212.192-.347.249-.133.058-.281.087-.444.087-.162 0-.31-.029-.444-.087-.133-.058-.249-.141-.347-.249-.098-.11-.174-.242-.228-.398-.053-.156-.08-.331-.08-.527v-.122c0-.197.027-.373.08-.527.053-.156.128-.288.225-.398.098-.11.213-.193.347-.251.134-.058.282-.087.444-.087.163 0 .311.029.444.087.134.058.25.142.347.251.098.11.173.242.226.398.054.154.081.33.081.527zm-.536.122v-.126c0-.137-.012-.257-.037-.361s-.061-.191-.11-.262c-.048-.071-.107-.124-.177-.159-.07-.037-.149-.055-.239-.055s-.169.018-.239.055c-.068.035-.127.088-.175.159-.047.071-.083.158-.108.262s-.037.224-.037.361v.126c0 .136.012.256.037.361.025.104.061.192.11.264.048.071.107.124.177.161s.149.055.239.055.169-.018.239-.055.128-.09.175-.161c.047-.072.083-.16.108-.264.025-.105.037-.225.037-.361zm2.259.552c0-.046-.007-.087-.021-.124-.013-.038-.038-.072-.074-.103-.037-.032-.088-.063-.154-.094s-.152-.063-.256-.096c-.117-.038-.228-.08-.333-.127-.104-.047-.196-.102-.276-.164-.079-.064-.141-.137-.187-.221-.045-.084-.067-.181-.067-.292 0-.107.024-.205.071-.292.047-.088.113-.164.198-.226.085-.064.185-.113.301-.147.117-.034.245-.051.384-.051.19 0 .355.034.497.103s.251.162.329.281c.079.119.119.255.119.409h-.527c0-.075-.016-.141-.048-.198-.031-.058-.078-.103-.142-.136-.063-.033-.142-.049-.237-.049-.092 0-.169.014-.23.042-.061.027-.107.064-.138.111-.031.046-.046.098-.046.156 0 .044.011.083.032.119.022.035.055.068.099.099s.097.06.161.087c.064.027.137.054.221.08.14.042.264.09.37.143.107.053.197.113.269.179s.126.141.163.225c.037.084.055.179.055.285 0 .112-.022.212-.065.301s-.107.163-.189.225-.181.108-.295.14c-.114.032-.242.048-.384.048-.127 0-.253-.016-.377-.049-.124-.034-.236-.085-.338-.154-.1-.068-.18-.156-.241-.262s-.09-.232-.09-.377h.532c0 .08.012.148.037.203s.06.1.104.134c.046.034.1.059.163.074.064.015.133.023.209.023.092 0 .167-.013.226-.039.06-.026.104-.062.133-.108.029-.046.044-.098.044-.156zm2.043-1.902v2.575h-.529v-2.575h.529zm.792 0v.416h-2.101v-.416h2.101zm2.031 2.162v.414h-1.371v-.414h1.371zm-1.197-2.162v2.575h-.531v-2.575h.531zm1.018 1.049v.403h-1.192v-.403h1.192zm.177-1.049v.416h-1.369v-.416h1.369zm.312 0h.96c.197 0 .366.029.508.088.143.059.252.146.329.262s.115.258.115.426c0 .138-.024.256-.071.355-.046.098-.111.18-.196.246-.084.065-.182.117-.295.156l-.168.088h-.835l-.004-.414h.621c.093 0 .17-.016.232-.049s.107-.079.138-.138c.032-.059.048-.127.048-.205 0-.083-.015-.154-.046-.214s-.077-.106-.14-.138c-.063-.032-.141-.048-.235-.048h-.43v2.16h-.531v-2.575zm1.439 2.576-.587-1.148.561-.004.594 1.127v.025h-.568zm2.786-.919h-.656v-.414h.656c.101 0 .184-.017.248-.049.064-.034.11-.081.14-.142s.044-.128.044-.203c0-.077-.015-.148-.044-.214s-.076-.119-.14-.159-.146-.06-.248-.06h-.472v2.16h-.531v-2.575h1.003c.202 0 .374.037.518.11.145.072.256.172.333.299s.115.273.115.437c0 .166-.038.31-.115.432s-.187.215-.333.281c-.144.066-.317.099-.518.099zm3.061.505v.414H37.96v-.414h1.371zm-1.198-2.162v2.575h-.531v-2.575h.531zm1.019 1.049v.403H37.96v-.403h1.192zm.177-1.049v.416H37.96v-.416h1.369zm1.498 0v2.575h-.529v-2.575h.529zm.793 0v.416h-2.101v-.416h2.101zm2.03 2.162v.414h-1.371v-.414h1.371zm-1.197-2.162v2.575h-.531v-2.575h.531zm1.019 1.049v.403H42.28v-.403h1.192zm.176-1.049v.416h-1.369v-.416h1.369zm.312 0h.96c.197 0 .366.029.508.088.143.059.252.146.329.262s.115.258.115.426c0 .138-.024.256-.071.355-.046.098-.111.18-.196.246-.084.065-.182.117-.295.156l-.168.088h-.835l-.004-.414h.621c.093 0 .17-.016.232-.049s.107-.079.138-.138c.032-.059.048-.127.048-.205 0-.083-.015-.154-.046-.214s-.077-.106-.14-.138c-.063-.032-.141-.048-.235-.048h-.43v2.16h-.531v-2.575zm1.44 2.576-.587-1.148.561-.004.594 1.127v.025H45.4zm2.221-.674c0-.046-.007-.087-.021-.124-.013-.038-.038-.072-.074-.103-.037-.032-.088-.063-.154-.094s-.152-.063-.256-.096c-.117-.038-.228-.08-.333-.127-.104-.047-.196-.102-.276-.164-.079-.064-.141-.137-.187-.221-.045-.084-.067-.181-.067-.292 0-.107.024-.205.071-.292.047-.088.113-.164.198-.226.085-.064.185-.113.301-.147.117-.034.245-.051.384-.051.19 0 .355.034.497.103s.251.162.329.281c.079.119.119.255.119.409h-.527c0-.075-.016-.141-.048-.198-.031-.058-.078-.103-.142-.136-.063-.033-.142-.049-.237-.049-.092 0-.169.014-.23.042-.061.027-.107.064-.138.111-.031.046-.046.098-.046.156 0 .044.011.083.032.119.022.035.055.068.099.099s.097.06.161.087c.064.027.137.054.221.08.14.042.264.09.37.143.107.053.197.113.269.179s.126.141.163.225c.037.084.055.179.055.285 0 .112-.022.212-.065.301s-.107.163-.189.225-.181.108-.295.14c-.114.032-.242.048-.384.048-.127 0-.253-.016-.377-.049-.124-.034-.236-.085-.338-.154-.1-.068-.18-.156-.241-.262s-.09-.232-.09-.377h.532c0 .08.012.148.037.203s.06.1.104.134c.046.034.1.059.163.074.064.015.133.023.209.023.092 0 .167-.013.226-.039.06-.026.104-.062.133-.108.029-.046.044-.098.044-.156z"></path>
  </symbol>
  <symbol xmlns="http://www.w3.org/2000/svg" viewBox="0 0 64 32" id="company-5">
    <path d="M16.155 27.062c.147.167.226.376.221.59.008.14-.019.279-.079.408s-.15.244-.264.337c-.286.198-.64.294-.997.272h-1.753v-3.738H15c.339-.021.675.067.951.248.111.085.199.192.256.314s.084.253.077.386c.01.206-.061.409-.199.572-.133.149-.317.251-.523.292.233.039.442.152.592.32zm-2.056-.564h.734c.167.011.332-.033.467-.124.055-.046.098-.102.125-.166s.038-.132.032-.2c.005-.068-.006-.135-.033-.199s-.069-.12-.123-.167c-.138-.094-.309-.139-.481-.126h-.722v.981zm1.272 1.434c.059-.047.105-.105.135-.171s.043-.137.038-.208c.004-.072-.009-.144-.04-.211s-.078-.126-.138-.173c-.144-.098-.32-.145-.499-.135h-.77v1.028h.78c.176.009.349-.036.493-.13zM19.665 28.67l-.955-1.461h-.359v1.461h-.822v-3.738h1.556c.392-.025.78.089 1.083.318.217.203.349.47.37.754s-.069.565-.254.793c-.192.201-.454.336-.742.38l1.017 1.494h-.894zm-1.314-1.971h.672c.467 0 .7-.189.7-.566.005-.077-.008-.154-.038-.227s-.075-.138-.134-.194c-.148-.112-.337-.167-.529-.152h-.68l.008 1.138zM24.157 27.917H22.52l-.289.752h-.862l1.504-3.696h.931l1.498 3.696h-.862l-.283-.752zm-.219-.566-.598-1.578-.598 1.578h1.197zM29.78 28.669h-.816l-1.829-2.542v2.542h-.814v-3.738h.814l1.829 2.557v-2.557h.816v3.738zM34.435 27.775c-.169.282-.426.512-.738.659-.355.164-.749.245-1.147.236h-1.452v-3.738h1.452c.397-.009.791.07 1.147.23.312.144.57.371.738.652.168.304.255.64.255.981s-.087.677-.255.981zm-.934-.09c.233-.248.361-.565.361-.892s-.128-.644-.361-.892c-.281-.225-.648-.339-1.021-.318h-.566v2.42h.566c.373.021.74-.093 1.021-.318zM24.668 4.138s10.529 3.64 10.306 8.906v8.908s-10.521-3.641-10.302-8.908l-.004-8.906zM44.353 19.867c1.989-1.253 4.289-2.029 6.69-2.257v-2.789c-2.767.976-5.113 2.747-6.69 5.046z"></path>
    <path d="M43.159 20.707c1.628-3.001 4.449-5.316 7.884-6.47V6.202s-14.995 5.185-14.678 12.685V31.57s.668-.232 1.719-.667c0-.405 0-.814.048-1.225.31-3.482 2.118-6.709 5.026-8.97z"></path>
    <path d="M41.733 25.419c.079-.88.255-1.75.525-2.597-1.811 1.953-2.907 4.377-3.135 6.93-.022.241-.034.482-.04.73.852-.374 1.843-.842 2.884-1.392-.266-1.208-.344-2.444-.233-3.672zM42.329 25.465c-.1 1.111-.038 2.23.185 3.326 4.097-2.244 8.7-5.712 8.523-9.904v-.365c-2.927.3-5.665 1.471-7.795 3.335-.498 1.155-.806 2.371-.913 3.609z"></path>
  </symbol>
  <symbol xmlns="http://www.w3.org/2000/svg" viewBox="0 0 64 32" id="company-6">
    <path d="M32.257 16.601c-.268-.356-.396-.777-.365-1.201v-1.741c0-.534.121-.939.363-1.217s.658-.416 1.247-.414c.554 0 .947.118 1.179.354.254.301.377.67.349 1.041v.409h-.991v-.414c.004-.136-.006-.271-.029-.406-.014-.092-.064-.177-.142-.241-.102-.069-.23-.103-.359-.094-.136-.009-.27.027-.377.099-.086.071-.144.164-.164.266-.028.142-.041.286-.039.43v2.113c-.016.204.028.408.127.593.049.063.118.113.198.144s.168.043.256.033c.127.009.253-.025.351-.096.081-.069.133-.159.148-.257.023-.14.033-.282.031-.423v-.429h.991v.391c.028.387-.093.772-.343 1.094-.228.259-.615.388-1.186.388s-1.001-.138-1.245-.425zM36.382 16.619c-.25-.271-.375-.666-.375-1.188V13.6c0-.517.125-.909.375-1.174s.669-.398 1.255-.397c.583 0 .999.132 1.249.397.25.266.377.657.377 1.174v1.831c0 .517-.127.914-.382 1.186s-.669.409-1.245.409c-.576 0-1.003-.138-1.255-.407zm1.716-.44c.09-.17.13-.356.119-.542v-2.242c.011-.183-.029-.365-.117-.531-.05-.064-.12-.115-.202-.146s-.172-.042-.261-.031c-.089-.011-.18 0-.262.031s-.153.082-.204.146c-.09.166-.131.348-.119.531v2.253c-.013.186.028.372.119.542.058.057.129.103.209.134s.167.048.255.048.175-.016.255-.048.151-.077.209-.134v-.011zM40.455 12.082h1.067l.802 3.378.82-3.378h1.038l.105 4.877h-.767l-.082-3.389-.792 3.389h-.615l-.82-3.402-.076 3.402h-.775l.096-4.877zM45.482 12.082h1.661c.957 0 1.436.462 1.436 1.385 0 .884-.504 1.326-1.512 1.325h-.566v2.167h-1.026l.006-4.877zm1.42 2.084c.101.011.204.003.302-.024s.187-.071.262-.131c.118-.165.169-.358.148-.551.005-.149-.011-.298-.049-.443-.015-.048-.04-.094-.075-.134s-.079-.073-.13-.098c-.142-.059-.3-.086-.457-.078h-.398v1.457h.398zM50.059 12.082h1.101l1.13 4.877h-.956l-.224-1.124h-.983l-.23 1.124h-.97l1.13-4.877zM51 15.269l-.384-2.047-.384 2.047h.767zM53.203 12.082h.718l1.374 2.782v-2.782h.851v4.877h-.683l-1.382-2.904v2.904h-.88l.002-4.877zM58.14 15.099l-1.143-3.01h.962l.697 1.934.654-1.934h.941l-1.128 3.01v1.859h-.984v-1.859zM33.84 19.09v.255h-.837v1.982h-.351v-1.982h-.841v-.255h2.029zM36.464 21.327h-.271c-.027.002-.055-.006-.076-.021-.02-.013-.036-.031-.045-.051l-.242-.531h-1.161l-.242.531c-.007.022-.02.043-.037.06-.021.015-.048.022-.076.021h-.271l1.026-2.236h.357l1.038 2.228zm-1.699-.83h.968l-.41-.91c-.03-.069-.056-.139-.076-.211-.014.043-.027.083-.039.119l-.037.094-.406.908zM38.232 21.108c.064.003.129.003.193 0 .056-.005.11-.014.164-.027.05-.011.1-.024.148-.041.045-.016.09-.035.137-.055v-.503h-.41c-.01 0-.02-.001-.03-.004s-.018-.008-.026-.014c-.007-.005-.012-.011-.016-.018s-.005-.015-.005-.022v-.172h.796v.857c-.065.04-.134.076-.205.106-.073.031-.149.057-.228.076-.084.021-.17.037-.256.046-.099.01-.199.014-.299.014-.177.001-.352-.027-.517-.083-.154-.053-.293-.133-.41-.234-.114-.102-.204-.222-.265-.354-.065-.148-.097-.306-.094-.464-.002-.159.029-.318.092-.468.059-.133.149-.253.265-.354.117-.101.257-.18.41-.232.176-.057.362-.085.55-.083.096 0 .191.006.285.019.083.012.165.031.244.057.072.023.141.053.205.088.063.035.123.074.178.117l-.098.138c-.008.013-.019.023-.033.031s-.03.012-.047.012c-.023-.001-.045-.007-.064-.018-.031-.014-.064-.032-.101-.053-.044-.024-.09-.044-.137-.06-.061-.021-.124-.038-.189-.05-.086-.014-.173-.02-.261-.019-.135-.001-.27.02-.396.062-.114.04-.217.1-.302.177-.085.08-.15.175-.191.278-.092.242-.092.503 0 .746.045.105.115.201.205.282.084.077.186.137.299.177.13.039.269.054.406.044zM41.501 21.072h1.12v.255h-1.462V19.09h.351l-.008 1.982zM43.786 21.327h-.351V19.09h.351v2.237zM45.091 19.101c.021.01.039.024.053.041l1.499 1.686c-.002-.026-.002-.053 0-.08v-1.667h.306v2.246h-.176c-.026.002-.052-.002-.076-.012-.021-.011-.04-.026-.055-.043l-1.497-1.684v1.739h-.293V19.09h.183c.02 0 .039.004.057.011zM49.531 19.09v.246h-1.243v.738h1.007v.237h-1.007v.763h1.243v.246h-1.604v-2.231h1.604zM12.777 5.278l15.574 3.818v13.378l-15.574-3.816V5.278zm-.999-1.14v15.17l17.57 4.308V8.447l-17.57-4.31z"></path>
    <path d="M21.195 30.659 3.623 26.347V11.178l17.572 4.31v15.171z"></path>
    <path d="m12.069 5.107 15.371 3.77-6.537 5.645L5.53 10.75l6.539-5.643zm-.291-.969-8.155 7.041 17.572 4.31 8.153-7.041-17.57-4.31zM22.183 29.806l7.165-6.187-7.165-1.758v7.945z"></path>
  </symbol>
  <symbol xmlns="http://www.w3.org/2000/svg" viewBox="0 0 32 32" id="computador">
    <path fill="#2196F3" d="M14.926 14.965h1.066v4.798h-1.066v-4.797zM19.19 17.097h1.066v2.665H19.19v-2.665zM10.661 18.696h1.066v1.066h-1.066v-1.066zM7.463 18.163h1.066v1.599H7.463v-1.599z"></path>
    <path d="M1.599 28.291h25.587c.883 0 1.599-.716 1.599-1.599V24.56c0-.883-.716-1.599-1.599-1.599h-.533V9.668L29.681 6.8c.703.346 1.553.136 2.013-.499s.396-1.508-.152-2.068-1.42-.644-2.065-.198c-.644.446-.873 1.292-.542 2.002L26.654 8.2V6.97c0-.883-.716-1.599-1.599-1.599H3.733c-.883 0-1.599.716-1.599 1.599v15.992h-.533c-.883 0-1.599.716-1.599 1.599v2.132c0 .883.716 1.599 1.599 1.599zM30.384 4.837c.294 0 .533.239.533.533s-.239.533-.533.533c-.294 0-.533-.239-.533-.533s.239-.533.533-.533zM3.198 6.969c0-.294.239-.533.533-.533h21.322c.294 0 .533.239.533.533v2.239l-1.066 1.013V8.035c0-.294-.239-.533-.533-.533H4.797c-.294 0-.533.239-.533.533v13.326c0 .294.239.533.533.533h19.19c.294 0 .533-.239.533-.533v-9.674l1.066-1.01v12.284H3.198V6.969zm4.798 6.93c-.721-.002-1.354.478-1.546 1.174s.105 1.433.725 1.801c.62.368 1.41.276 1.928-.226l1.853.93c.215.108.476.057.636-.123l3.939-4.431 3.872 2.901c.208.156.498.139.686-.039l3.365-3.188v8.131H5.33V8.569h18.124v2.66l-3.771 3.572-3.904-2.927c-.222-.166-.534-.135-.718.072l-3.993 4.493-1.493-.746c.011-.064.018-.129.02-.193 0-.883-.716-1.599-1.599-1.599zm.533 1.599c0 .294-.239.533-.533.533s-.533-.239-.533-.533c0-.294.239-.533.533-.533s.533.239.533.533zm3.198 8.529h5.331v.533c0 .294-.239.533-.533.533h-4.264c-.294 0-.533-.239-.533-.533v-.533zm-10.661.533c0-.294.239-.533.533-.533h9.062v.533c0 .883.716 1.599 1.599 1.599h4.264c.883 0 1.599-.716 1.599-1.599v-.533h9.062c.294 0 .533.239.533.533v2.132c0 .294-.239.533-.533.533H1.598c-.294 0-.533-.239-.533-.533V24.56z"></path>
  </symbol>
  <symbol xmlns="http://www.w3.org/2000/svg" viewBox="0 0 32 32" id="facebook">
    <path d="M21.329 5.313h2.921V.225C23.746.156 22.013 0 19.994 0c-4.212 0-7.097 2.649-7.097 7.519V12H8.249v5.688h4.648V32h5.699V17.689h4.46l.708-5.688h-5.169V8.082c.001-1.644.444-2.769 2.735-2.769z"></path>
  </symbol>
  <symbol xmlns="http://www.w3.org/2000/svg" viewBox="0 0 32 32" id="instagram">
    <path d="M31.969 9.408c-.075-1.7-.35-2.869-.744-3.882-.406-1.075-1.032-2.038-1.851-2.838-.8-.813-1.769-1.444-2.832-1.844C25.523.45 24.36.175 22.66.1 20.947.019 20.403 0 16.059 0s-4.888.019-6.595.094c-1.7.075-2.869.35-3.882.744-1.075.406-2.038 1.031-2.838 1.85C1.931 3.488 1.3 4.457.9 5.52.506 6.539.231 7.702.156 9.402c-.081 1.713-.1 2.257-.1 6.601s.019 4.888.094 6.595c.075 1.7.35 2.869.744 3.882.406 1.075 1.038 2.038 1.85 2.838.8.813 1.769 1.444 2.832 1.844 1.019.394 2.182.669 3.882.744 1.706.075 2.25.094 6.595.094s4.888-.019 6.595-.094c1.7-.075 2.869-.35 3.882-.744 2.151-.832 3.851-2.532 4.682-4.682.394-1.019.669-2.182.744-3.882.075-1.707.094-2.251.094-6.595s-.006-4.888-.081-6.595zm-2.882 13.065c-.069 1.563-.331 2.407-.55 2.969-.538 1.394-1.644 2.5-3.038 3.038-.563.219-1.413.481-2.969.55-1.688.075-2.194.094-6.464.094s-4.782-.019-6.464-.094c-1.563-.069-2.407-.331-2.969-.55-.694-.256-1.325-.663-1.838-1.194-.531-.519-.938-1.144-1.194-1.838-.219-.563-.481-1.413-.55-2.969-.075-1.688-.094-2.194-.094-6.464s.019-4.782.094-6.464c.069-1.563.331-2.407.55-2.969.256-.694.663-1.325 1.2-1.838.519-.531 1.144-.938 1.838-1.194.563-.219 1.413-.481 2.969-.55 1.688-.075 2.194-.094 6.464-.094 4.276 0 4.782.019 6.464.094 1.563.069 2.407.331 2.969.55.694.256 1.325.662 1.838 1.194.531.519.938 1.144 1.194 1.838.219.563.481 1.413.55 2.969.075 1.688.094 2.194.094 6.464s-.019 4.77-.094 6.458z"></path>
    <path d="M16.059 7.783c-4.538 0-8.22 3.682-8.22 8.22s3.682 8.22 8.22 8.22c4.539 0 8.22-3.682 8.22-8.22s-3.682-8.22-8.22-8.22zm0 13.552c-2.944 0-5.332-2.388-5.332-5.332s2.388-5.332 5.332-5.332 5.332 2.388 5.332 5.332-2.388 5.332-5.332 5.332zM26.524 7.458c0 1.06-.859 1.919-1.919 1.919s-1.919-.859-1.919-1.919.859-1.919 1.919-1.919 1.919.859 1.919 1.919z"></path>
  </symbol>
  <symbol xmlns="http://www.w3.org/2000/svg" viewBox="0 0 32 32" id="linkedin">
    <path d="M31.992 32v-.001H32V20.263c0-5.741-1.236-10.164-7.948-10.164-3.227 0-5.392 1.771-6.276 3.449h-.093v-2.913h-6.364v21.364h6.627V21.42c0-2.785.528-5.479 3.977-5.479 3.399 0 3.449 3.179 3.449 5.657v10.401h6.62zM.528 10.636h6.635V32H.528V10.636zM3.843 0C1.722 0 0 1.721 0 3.843s1.721 3.879 3.843 3.879c2.121 0 3.843-1.757 3.843-3.879C7.685 1.722 5.963 0 3.843 0z"></path>
  </symbol>
  <symbol xmlns="http://www.w3.org/2000/svg" viewBox="0 0 43 32" id="mensaje">
    <path d="M38.667 0H4C1.794 0 0 1.794 0 4v24c0 2.206 1.794 4 4 4h34.667c2.206 0 4-1.794 4-4V4c0-2.206-1.794-4-4-4zm0 2.667c.181 0 .353.038.511.103L21.334 18.236 3.49 2.77c.158-.066.33-.103.511-.103h34.667zm0 26.666H4c-.736 0-1.333-.598-1.333-1.333V5.587L20.46 21.008c.251.217.563.326.874.326s.622-.108.874-.326L40.001 5.587V28c0 .736-.598 1.333-1.333 1.333z"></path>
  </symbol>
  <symbol xmlns="http://www.w3.org/2000/svg" viewBox="0 0 20 32" id="phone">
    <path d="M17 0H3C1.346 0 0 1.346 0 3v26c0 1.654 1.346 3 3 3h14c1.654 0 3-1.346 3-3V3c0-1.654-1.346-3-3-3zM3 2h14c.552 0 1 .448 1 1v21H2V3c0-.552.448-1 1-1zm14 28H3c-.552 0-1-.448-1-1v-3h16v3c0 .552-.448 1-1 1z"></path>
    <path d="M4.707 27.478c.391.365.391.956 0 1.321s-1.024.365-1.414 0c-.391-.365-.391-.956 0-1.321s1.024-.365 1.414 0z"></path>
  </symbol>
  <symbol xmlns="http://www.w3.org/2000/svg" viewBox="0 0 31 32" id="reloj">
    <path d="M29.317 13.732C29.315 6.147 23.165-.001 15.579 0S1.846 6.152 1.847 13.738c.001 5.975 3.865 11.264 9.557 13.081.054.017.111.026.168.026.108 0 .214-.029.307-.084.121-.072.212-.186.254-.32l3.469-10.994c.948-.005 1.713-.778 1.708-1.726s-.777-1.713-1.726-1.708c-.255.001-.507.06-.736.172l-4.582-4.583c-.227-.22-.59-.213-.809.014-.214.222-.214.573 0 .795l4.58 4.585c-.351.717-.151 1.583.481 2.072l-3.305 10.476c-6.531-2.406-9.876-9.651-7.47-16.182s9.651-9.876 16.182-7.47 9.876 9.651 7.47 16.182c-1.175 3.191-3.591 5.772-6.697 7.156l-.357-1.682c-.065-.309-.369-.507-.678-.441-.098.021-.188.067-.262.133l-3.443 3.074c-.236.21-.257.572-.047.808.068.077.156.134.254.165l4.396 1.403c.301.097.623-.069.72-.37.031-.095.036-.196.015-.294l-.351-1.65c5.083-2.143 8.384-7.128 8.372-12.644zm-13.734-.572c.316 0 .572.256.572.572s-.256.572-.572.572c-.316 0-.572-.256-.572-.572s.256-.572.572-.572zm1.885 13.339 1.96-1.748.541 2.549-2.501-.801z"></path>
    <path fill="#2196F3" d="M15.01 2.858v1.145c0 .316.256.572.572.572s.572-.256.572-.572V2.858c0-.316-.256-.572-.572-.572s-.572.256-.572.572zM4.709 13.16c-.316 0-.572.256-.572.572s.256.572.572.572h1.145c.316 0 .572-.256.572-.572s-.256-.572-.572-.572H4.709zM26.456 14.304c.316 0 .572-.256.572-.572s-.256-.572-.572-.572h-1.145c-.316 0-.572.256-.572.572s.256.572.572.572h1.145z"></path>
  </symbol>
  <symbol xmlns="http://www.w3.org/2000/svg" viewBox="0 0 32 32" id="twitter">
    <path d="M32 6.078c-1.19.522-2.458.868-3.78 1.036 1.36-.812 2.398-2.088 2.886-3.626-1.268.756-2.668 1.29-4.16 1.588C25.742 3.794 24.026 3 22.154 3c-3.632 0-6.556 2.948-6.556 6.562 0 .52.044 1.02.152 1.496-5.454-.266-10.28-2.88-13.522-6.862-.566.982-.898 2.106-.898 3.316 0 2.272 1.17 4.286 2.914 5.452-1.054-.02-2.088-.326-2.964-.808v.072c0 3.188 2.274 5.836 5.256 6.446-.534.146-1.116.216-1.72.216-.42 0-.844-.024-1.242-.112.85 2.598 3.262 4.508 6.13 4.57-2.232 1.746-5.066 2.798-8.134 2.798-.538 0-1.054-.024-1.57-.09C2.906 27.93 6.35 29 10.064 29c12.072 0 18.672-10 18.672-18.668 0-.29-.01-.57-.024-.848C30.014 8.56 31.108 7.406 32 6.078z"></path>
  </symbol>
  <symbol xmlns="http://www.w3.org/2000/svg" viewBox="0 0 18 18" id="close">
    <path fill="#000" d="M15 4.10786 13.8921 3 9.5 7.39214 5.10786 3 4 4.10786 8.39214 8.5 4 12.8921 5.10786 14 9.5 9.60786 13.8921 14 15 12.8921 10.6079 8.5 15 4.10786Z"></path>
  </symbol>
  <symbol xmlns="http://www.w3.org/2000/svg" viewBox="0 0 18 18" id="persona">
    <g clip-path="url(#a)">
      <path d="M9 9c1.6575 0 3-1.3425 3-3s-1.3425-3-3-3-3 1.3425-3 3 1.3425 3 3 3Zm0 1.5c-2.0025 0-6 1.005-6 3v.75c0 .4125.3375.75.75.75h10.5c.4125 0 .75-.3375.75-.75v-.75c0-1.995-3.9975-3-6-3Z"></path>
    </g>
    <defs>
      <clipPath id="a">
        <path d="M0 0h18v18H0z"></path>
      </clipPath>
    </defs>
  </symbol>
  <symbol xmlns="http://www.w3.org/2000/svg" viewBox="0 0 18 18" id="telefononegro">
    <g clip-path="url(#a)">
      <path d="m13.996 11.1226-1.8381-.2099c-.4415-.0507-.8757.1013-1.1869.4125l-1.33155 1.3316c-2.04801-1.0421-3.72694-2.71384-4.76904-4.7691l1.33881-1.33882c.31118-.31118.46315-.74539.41249-1.18683l-.20986-1.82369c-.08685-.73091-.70197-1.28091-1.44012-1.28091H3.71976c-.81776 0-1.49801.68026-1.44736 1.49802.38355 6.18025 5.32628 11.11573 11.4993 11.49933.8177.0506 1.498-.6296 1.498-1.4474v-1.2519c.0072-.731-.5428-1.3461-1.2737-1.4329Z"></path>
    </g>
    <defs>
      <clipPath id="a">
        <path d="M0 0h18v18H0z"></path>
      </clipPath>
    </defs>
  </symbol>
   <symbol xmlns="http://www.w3.org/2000/svg" viewBox="0 0 18 18" id="correoelectronico">
    <g clip-path="url(#a)">
      <path d="M15 3H3c-.825 0-1.4925.675-1.4925 1.5l-.0075 9c0 .825.675 1.5 1.5 1.5h12c.825 0 1.5-.675 1.5-1.5v-9c0-.825-.675-1.5-1.5-1.5Zm-.3 3.1875-5.3025 3.315c-.24.15-.555.15-.795 0L3.3 6.1875c-.1875-.12-.3-.3225-.3-.54 0-.5025.5475-.8025.975-.54L9 8.25l5.025-3.1425c.4275-.2625.975.0375.975.54 0 .2175-.1125.42-.3.54Z"></path>
    </g>
    <defs>
      <clipPath id="a">
        <path d="M0 0h18v18H0z"></path>
      </clipPath>
    </defs>
  </symbol>
<symbol xmlns="http://www.w3.org/2000/svg" viewBox="0 0 16 15" id="chulo">
    <rect width="16" height="15" rx="2"></rect>
    <path stroke="#fff" stroke-width=".2" d="m3.95703 7.75166-.06878-.06562-.06902.06537-.888.84117-.07637.07234.07611.07261 3.49574 3.33487.06903.0658.06902-.0658L14.069 4.91352l.0759-.07236-.0759-.07235-.8817-.84117-.069-.06581-.069.06578-6.55353 6.24589-2.53874-2.42184Z"></path>
  </symbol>
  <symbol xmlns="http://www.w3.org/2000/svg" viewBox="0 0 24 24" id="avion">
    <path d="M24 0 0 13.5l7.66994 2.8407L19.5 5.25002 10.5017 17.3896l.0073.0027-.009-.0027v6.6105l4.3013-5.0181 5.4488 2.0181L24 0Z"></path>
  </symbol>
  <symbol id="menu-mobile" viewBox="0 0 32 32">
<path d="M6.4 11.734v-2.134h19.2v2.134h-19.2zM6.4 17.066h19.2v-2.133h-19.2v2.133zM6.4 22.4h19.2v-2.134h-19.2v2.134z"></path>
</symbol>
</svg>